<svg width="2135" height="638" viewBox="0 0 2135 638" fill="none" xmlns="http://www.w3.org/2000/svg">
<path d="M164.964 2.53885C174.989 -2.68218 185.868 0.275612 193.317 10.2488C195.681 13.4151 196.386 16.9807 196.959 28.6853L197.67 43.1961H395.33L396.041 27.9539C396.745 12.8797 396.806 12.6583 401.689 7.61112C410.411 -1.40451 422.755 -2.51004 431.581 4.93241C438.282 10.5809 439.358 13.6078 440.123 28.9461L440.834 43.1961L469.986 44.0721C500.607 44.994 507.752 46.2154 523.595 53.2361C550.277 65.0604 574.545 90.5811 584.991 117.801C593.306 139.464 592.989 130.627 592.989 341.012C592.989 561.086 593.823 545.133 580.934 571.855C565.966 602.888 540.33 624.258 506.246 634.113L494.87 637.403H98.1301L86.7541 634.123C52.9984 624.388 26.9166 602.644 12.0666 571.855C-0.822465 545.133 0.0109279 561.086 0.0109279 341.012C0.0109274 130.627 -0.305511 139.464 8.00897 117.801C18.5276 90.3902 42.4951 65.2578 69.5217 53.2996C85.7439 46.1207 92.2583 44.9983 123.015 44.0721L152.166 43.1961L152.877 28.2332C153.688 11.1698 155.406 7.51614 164.964 2.53885ZM133.68 88.5994C123.513 88.4925 111.261 88.9268 106.451 89.5652C77.3798 93.4283 51.64 118.077 46.3459 147.124C45.2894 152.922 44.8112 214.071 44.8254 341.631C44.8439 502.538 45.1372 528.916 46.9943 536.811C53.153 562.996 73.3582 583.483 99.84 590.395C112.159 593.61 480.933 593.585 493.262 590.368C519.896 583.417 539.929 562.959 546.065 536.445C547.991 528.123 548.209 503.923 547.87 336.386L547.485 145.793L544.279 137.358C536.013 115.612 519.624 99.567 498.183 92.2342C490.463 89.5951 485.745 89.1307 465.008 88.9754L440.834 88.7947L440.123 103.757C439.308 120.899 437.541 124.62 427.943 129.385C418.114 134.265 409.096 132.391 401.018 123.79C396.952 119.461 396.719 118.533 396.041 104.021L395.33 88.7947H197.67L196.959 103.304C196.386 115.009 195.681 118.575 193.317 121.741C185.828 131.768 175.634 134.625 165.418 129.559C155.441 124.612 153.698 121.025 152.877 103.757L152.166 88.7947L133.68 88.5994Z" fill="#6BADA0"/>
<path d="M720.136 428H657.77V259.273H720.054C737.245 259.273 752.047 262.651 764.46 269.406C776.928 276.107 786.54 285.774 793.295 298.406C800.051 310.984 803.429 326.033 803.429 343.554C803.429 361.13 800.051 376.234 793.295 388.866C786.595 401.499 777.01 411.193 764.543 417.949C752.075 424.65 737.273 428 720.136 428ZM698.551 393.233H718.571C728.018 393.233 736.009 391.64 742.545 388.455C749.136 385.214 754.107 379.969 757.457 372.719C760.863 365.414 762.565 355.692 762.565 343.554C762.565 331.416 760.863 321.749 757.457 314.554C754.052 307.304 749.027 302.086 742.381 298.901C735.79 295.66 727.661 294.04 717.994 294.04H698.551V393.233ZM853.767 428H809.938L866.866 259.273H921.159L978.088 428H934.259L894.631 301.784H893.312L853.767 428ZM847.918 361.597H939.531V392.574H847.918V361.597ZM1082.25 309.858C1081.7 303.816 1079.25 299.12 1074.91 295.77C1070.63 292.365 1064.5 290.662 1056.54 290.662C1051.27 290.662 1046.87 291.348 1043.36 292.722C1039.84 294.095 1037.21 295.99 1035.45 298.406C1033.69 300.768 1032.79 303.487 1032.73 306.562C1032.62 309.089 1033.12 311.313 1034.21 313.236C1035.37 315.158 1037.01 316.861 1039.16 318.344C1041.35 319.772 1043.99 321.035 1047.07 322.134C1050.14 323.232 1053.6 324.193 1057.45 325.017L1071.95 328.312C1080.3 330.125 1087.66 332.542 1094.03 335.562C1100.45 338.583 1105.83 342.181 1110.17 346.355C1114.57 350.529 1117.89 355.335 1120.14 360.773C1122.39 366.21 1123.55 372.307 1123.6 379.062C1123.55 389.718 1120.86 398.863 1115.53 406.497C1110.2 414.132 1102.54 419.981 1092.54 424.045C1082.6 428.11 1070.6 430.142 1056.54 430.142C1042.42 430.142 1030.12 428.027 1019.63 423.798C1009.14 419.569 1000.98 413.143 995.163 404.52C989.341 395.897 986.347 384.994 986.183 371.812H1025.23C1025.56 377.25 1027.02 381.781 1029.6 385.406C1032.18 389.031 1035.72 391.777 1040.23 393.645C1044.79 395.512 1050.06 396.446 1056.05 396.446C1061.54 396.446 1066.21 395.705 1070.05 394.222C1073.95 392.739 1076.94 390.679 1079.03 388.043C1081.12 385.406 1082.19 382.385 1082.25 378.98C1082.19 375.795 1081.2 373.076 1079.28 370.824C1077.36 368.517 1074.39 366.54 1070.38 364.892C1066.43 363.189 1061.37 361.624 1055.22 360.196L1037.59 356.077C1022.98 352.726 1011.48 347.316 1003.07 339.847C994.668 332.322 990.494 322.161 990.549 309.364C990.494 298.928 993.295 289.783 998.952 281.929C1004.61 274.075 1012.44 267.951 1022.43 263.557C1032.43 259.163 1043.83 256.966 1056.62 256.966C1069.69 256.966 1081.04 259.19 1090.65 263.639C1100.32 268.033 1107.81 274.212 1113.14 282.176C1118.47 290.14 1121.19 299.367 1121.3 309.858H1082.25ZM1144.2 428V259.273H1184.98V326.994H1251.47V259.273H1292.17V428H1251.47V360.196H1184.98V428H1144.2ZM1317.75 428V259.273H1388.1C1400.74 259.273 1411.31 261.058 1419.82 264.628C1428.39 268.198 1434.82 273.196 1439.1 279.622C1443.44 286.048 1445.61 293.491 1445.61 301.949C1445.61 308.375 1444.26 314.115 1441.57 319.168C1438.88 324.166 1435.17 328.312 1430.45 331.608C1425.73 334.903 1420.26 337.21 1414.06 338.528V340.176C1420.87 340.506 1427.16 342.346 1432.92 345.696C1438.74 349.046 1443.41 353.715 1446.93 359.702C1450.44 365.634 1452.2 372.664 1452.2 380.793C1452.2 389.855 1449.89 397.956 1445.28 405.097C1440.67 412.182 1433.99 417.784 1425.26 421.903C1416.53 425.968 1405.93 428 1393.46 428H1317.75ZM1358.53 395.128H1383.74C1392.58 395.128 1399.09 393.453 1403.26 390.102C1407.49 386.752 1409.61 382.083 1409.61 376.097C1409.61 371.758 1408.59 368.023 1406.56 364.892C1404.53 361.706 1401.64 359.262 1397.91 357.56C1394.17 355.802 1389.7 354.923 1384.48 354.923H1358.53V395.128ZM1358.53 328.642H1381.1C1385.55 328.642 1389.5 327.901 1392.97 326.418C1396.43 324.935 1399.12 322.793 1401.04 319.991C1403.02 317.19 1404 313.812 1404 309.858C1404 304.201 1402 299.752 1397.99 296.511C1393.98 293.271 1388.57 291.651 1381.76 291.651H1358.53V328.642ZM1631.06 343.636C1631.06 362.201 1627.49 377.937 1620.35 390.844C1613.21 403.751 1603.54 413.555 1591.35 420.256C1579.21 426.956 1565.59 430.307 1550.49 430.307C1535.33 430.307 1521.68 426.929 1509.54 420.173C1497.4 413.418 1487.76 403.614 1480.62 390.761C1473.54 377.854 1470 362.146 1470 343.636C1470 325.072 1473.54 309.336 1480.62 296.429C1487.76 283.522 1497.4 273.718 1509.54 267.017C1521.68 260.316 1535.33 256.966 1550.49 256.966C1565.59 256.966 1579.21 260.316 1591.35 267.017C1603.54 273.718 1613.21 283.522 1620.35 296.429C1627.49 309.336 1631.06 325.072 1631.06 343.636ZM1589.37 343.636C1589.37 332.652 1587.81 323.369 1584.68 315.79C1581.6 308.21 1577.15 302.471 1571.33 298.571C1565.56 294.671 1558.62 292.722 1550.49 292.722C1542.41 292.722 1535.47 294.671 1529.64 298.571C1523.82 302.471 1519.35 308.21 1516.22 315.79C1513.14 323.369 1511.6 332.652 1511.6 343.636C1511.6 354.621 1513.14 363.903 1516.22 371.483C1519.35 379.062 1523.82 384.802 1529.64 388.702C1535.47 392.601 1542.41 394.551 1550.49 394.551C1558.62 394.551 1565.56 392.601 1571.33 388.702C1577.15 384.802 1581.6 379.062 1584.68 371.483C1587.81 363.903 1589.37 354.621 1589.37 343.636ZM1681.4 428H1637.57L1694.5 259.273H1748.79L1805.72 428H1761.89L1722.26 301.784H1720.95L1681.4 428ZM1675.55 361.597H1767.16V392.574H1675.55V361.597ZM1823.89 428V259.273H1893.59C1906.22 259.273 1917.12 261.552 1926.29 266.111C1935.52 270.615 1942.63 277.096 1947.63 285.554C1952.63 293.957 1955.13 303.926 1955.13 315.46C1955.13 327.159 1952.57 337.1 1947.47 345.284C1942.36 353.413 1935.11 359.619 1925.72 363.903C1916.32 368.133 1905.2 370.247 1892.35 370.247H1848.27V338.116H1884.77C1890.92 338.116 1896.06 337.32 1900.18 335.727C1904.35 334.08 1907.51 331.608 1909.65 328.312C1911.79 324.962 1912.86 320.678 1912.86 315.46C1912.86 310.242 1911.79 305.931 1909.65 302.526C1907.51 299.065 1904.35 296.484 1900.18 294.781C1896 293.024 1890.87 292.145 1884.77 292.145H1864.67V428H1823.89ZM1918.88 350.886L1960.9 428H1916.41L1875.21 350.886H1918.88ZM2039.86 428H1977.5V259.273H2039.78C2056.97 259.273 2071.77 262.651 2084.19 269.406C2096.65 276.107 2106.27 285.774 2113.02 298.406C2119.78 310.984 2123.16 326.033 2123.16 343.554C2123.16 361.13 2119.78 376.234 2113.02 388.866C2106.32 401.499 2096.74 411.193 2084.27 417.949C2071.8 424.65 2057 428 2039.86 428ZM2018.28 393.233H2038.3C2047.74 393.233 2055.74 391.64 2062.27 388.455C2068.86 385.214 2073.83 379.969 2077.18 372.719C2080.59 365.414 2082.29 355.692 2082.29 343.554C2082.29 331.416 2080.59 321.749 2077.18 314.554C2073.78 307.304 2068.75 302.086 2062.11 298.901C2055.52 295.66 2047.39 294.04 2037.72 294.04H2018.28V393.233Z" fill="#6BADA0"/>
<path d="M109.267 428H65.4375L122.366 259.273H176.659L233.588 428H189.759L150.131 301.784H148.812L109.267 428ZM103.418 361.597H195.031V392.574H103.418V361.597ZM251.754 428V259.273H321.453C334.086 259.273 344.988 261.744 354.161 266.688C363.388 271.576 370.5 278.414 375.499 287.202C380.497 295.935 382.996 306.096 382.996 317.685C382.996 329.329 380.442 339.517 375.334 348.25C370.281 356.928 363.058 363.656 353.666 368.435C344.274 373.213 333.125 375.602 320.217 375.602H277.212V343.472H312.638C318.789 343.472 323.925 342.401 328.044 340.259C332.218 338.116 335.376 335.123 337.518 331.278C339.661 327.379 340.732 322.848 340.732 317.685C340.732 312.467 339.661 307.963 337.518 304.173C335.376 300.329 332.218 297.363 328.044 295.276C323.87 293.188 318.734 292.145 312.638 292.145H292.536V428H251.754ZM403.098 428V259.273H520.746V292.392H443.879V326.994H514.732V360.196H443.879V394.881H520.746V428H403.098Z" fill="#101828"/>
</svg>
