<svg width="593" height="638" viewBox="0 0 593 638" fill="none" xmlns="http://www.w3.org/2000/svg">
<path d="M164.964 2.53906C174.989 -2.68197 185.868 0.275822 193.316 10.249C195.681 13.4153 196.386 16.9809 196.959 28.6855L197.67 43.1963H395.33L396.041 27.9541C396.745 12.8799 396.805 12.6585 401.688 7.61133C410.411 -1.40429 422.755 -2.50983 431.581 4.93262C438.282 10.5812 439.358 13.608 440.123 28.9463L440.834 43.1963L469.985 44.0723C500.607 44.9942 507.752 46.2156 523.595 53.2363C550.277 65.0606 574.545 90.5814 584.991 117.801C593.306 139.464 592.989 130.627 592.989 341.012C592.989 561.086 593.823 545.133 580.934 571.855C565.966 602.888 540.33 624.258 506.246 634.113L494.87 637.403H98.1299L86.7539 634.123C52.9982 624.388 26.9165 602.645 12.0664 571.855C-0.822651 545.133 0.0107422 561.086 0.0107422 341.012C0.0107418 130.627 -0.305696 139.464 8.00879 117.801C18.5275 90.3904 42.4949 65.258 69.5215 53.2998C85.7437 46.1209 92.2582 44.9985 123.015 44.0723L152.166 43.1963L152.877 28.2334C153.688 11.17 155.405 7.51635 164.964 2.53906ZM133.68 88.5996C123.512 88.4927 111.26 88.9271 106.451 89.5654C77.3796 93.4285 51.6398 118.078 46.3457 147.124C45.2892 152.922 44.811 214.072 44.8252 341.631C44.8437 502.538 45.137 528.916 46.9941 536.812C53.1529 562.996 73.358 583.483 99.8398 590.396C112.159 593.61 480.933 593.586 493.262 590.368C519.896 583.417 539.928 562.959 546.064 536.445C547.991 528.124 548.209 503.923 547.87 336.386L547.484 145.793L544.279 137.358C536.013 115.612 519.623 99.5672 498.183 92.2344C490.463 89.5954 485.745 89.1309 465.008 88.9756L440.834 88.7949L440.123 103.757C439.308 120.899 437.541 124.62 427.942 129.385C418.113 134.265 409.096 132.391 401.018 123.79C396.952 119.461 396.719 118.533 396.041 104.021L395.33 88.7949H197.67L196.959 103.305C196.386 115.009 195.681 118.575 193.316 121.741C185.828 131.769 175.634 134.625 165.418 129.56C155.441 124.612 153.697 121.026 152.877 103.757L152.166 88.7949L133.68 88.5996Z" fill="#6BADA0"/>
<path d="M109.267 428H65.4375L122.366 259.273H176.659L233.588 428H189.759L150.131 301.784H148.812L109.267 428ZM103.418 361.597H195.031V392.574H103.418V361.597ZM251.754 428V259.273H321.453C334.086 259.273 344.988 261.744 354.161 266.688C363.388 271.576 370.5 278.414 375.499 287.202C380.497 295.935 382.996 306.096 382.996 317.685C382.996 329.329 380.442 339.517 375.334 348.25C370.281 356.928 363.058 363.656 353.666 368.435C344.274 373.213 333.125 375.602 320.217 375.602H277.212V343.472H312.638C318.789 343.472 323.925 342.401 328.044 340.259C332.218 338.116 335.376 335.123 337.518 331.278C339.661 327.379 340.732 322.848 340.732 317.685C340.732 312.467 339.661 307.963 337.518 304.173C335.376 300.329 332.218 297.363 328.044 295.276C323.87 293.188 318.734 292.145 312.638 292.145H292.536V428H251.754ZM403.098 428V259.273H520.746V292.392H443.879V326.994H514.732V360.196H443.879V394.881H520.746V428H403.098Z" fill="#101828"/>
</svg>
