<svg width="312" height="312" viewBox="0 0 312 312" fill="none" xmlns="http://www.w3.org/2000/svg">
<rect width="312" height="312" rx="56" fill="#FF0000"/>
<rect x="10" y="10" width="292" height="292" rx="59" fill="#FF0000" stroke="white" stroke-width="6"/>
<path d="M50.6065 203H26.0469L57.9467 108.455H88.3693L120.269 203H95.7095L73.5043 132.276H72.7656L50.6065 203ZM47.3288 165.791H98.6641V183.149H47.3288V165.791ZM130.449 203V108.455H169.504C176.583 108.455 182.692 109.839 187.831 112.609C193.002 115.348 196.987 119.18 199.788 124.104C202.589 128.998 203.989 134.692 203.989 141.185C203.989 147.71 202.558 153.419 199.696 158.312C196.864 163.175 192.817 166.945 187.554 169.623C182.292 172.3 176.044 173.639 168.811 173.639H144.713V155.635H164.564C168.011 155.635 170.889 155.035 173.197 153.835C175.536 152.634 177.306 150.957 178.506 148.803C179.706 146.617 180.306 144.078 180.306 141.185C180.306 138.262 179.706 135.738 178.506 133.614C177.306 131.46 175.536 129.798 173.197 128.629C170.858 127.459 167.98 126.874 164.564 126.874H153.3V203H130.449ZM215.253 203V108.455H281.176V127.013H238.105V146.402H277.806V165.006H238.105V184.442H281.176V203H215.253Z" fill="white"/>
</svg>
